<?xml version="1.0" encoding="utf-8"?>
<!-- Generator: Adobe Illustrator 16.0.0, SVG Export Plug-In . SVG Version: 6.00 Build 0)  -->
<!DOCTYPE svg PUBLIC "-//W3C//DTD SVG 1.1//EN" "http://www.w3.org/Graphics/SVG/1.1/DTD/svg11.dtd">
<svg version="1.1" id="Layer_1" xmlns="http://www.w3.org/2000/svg" xmlns:xlink="http://www.w3.org/1999/xlink" x="0px" y="0px"
	 width="63px" height="63.071px" viewBox="0 0 63 63.071" enable-background="new 0 0 63 63.071" xml:space="preserve">
<path fill="#50446F" d="M63,62.515c0,0.308-0.249,0.556-0.556,0.556H0.556C0.249,63.071,0,62.822,0,62.515V0.557
	C0,0.249,0.249,0,0.556,0h61.889C62.751,0,63,0.249,63,0.557V62.515z"/>
<g>
	<path fill="#FFFFFF" d="M22.878,35.857h0.501h3.999l5.639,0c1.75,0,3.281-0.086,4.594-0.26c1.312-0.174,2.474-0.472,3.485-0.896
		c0.245-0.108,0.083-0.028,0.313-0.153c-1.048-1.025-2.635-1.999-4.832-2.967l-1.77-0.78c-0.793,0-1.152,0.001-2.064,0.001l-3.144,0
		l-3.998,0h-0.08l0-9.692l6.996,0c2.339,0,4.098,0.378,5.274,1.133c1.177,0.755,1.766,1.971,1.766,3.646
		c0,1.245-0.329,2.253-0.985,3.025c-0.108,0.097-0.229,0.192-0.361,0.288l0.061,0.027l2.304,1.015
		c1.364,0.601,2.517,1.209,3.426,1.808c0.116,0.077,0.229,0.155,0.339,0.235c0.356-0.384,0.308-0.422,0.601-0.88
		c0.95-1.487,1.425-3.159,1.425-5.017c0-4.017-2.179-6.72-6.538-8.109c3.318-1.54,4.978-3.97,4.978-7.292
		c0-0.966-0.158-1.883-0.475-2.751c-0.317-0.868-0.777-1.66-1.38-2.377c-0.604-0.717-1.297-1.31-2.081-1.778
		c-0.92-0.56-1.961-0.937-3.123-1.134c-1.162-0.196-2.535-0.295-4.119-0.295L22.88,2.651c-1.433,0-2.47,0.321-3.112,0.963
		c-0.641,0.642-0.962,1.695-0.962,3.159l-0.002,24.96c0,1.435,0.313,2.481,0.939,3.138C20.37,35.528,21.415,35.857,22.878,35.857z
		 M25.523,7.707l5.456,0c2.445,0,4.264,0.276,5.457,0.827c1.192,0.551,1.788,1.664,1.788,3.338c0,0.786-0.189,1.495-0.567,2.128
		c-0.483,0.891-1.182,1.494-2.095,1.811c-0.913,0.317-2.207,0.476-3.881,0.475l-6.158,0L25.523,7.707z"/>
	<path fill="#FFFFFF" d="M46.873,36.351c-0.214-0.732-0.54-1.408-0.967-2.01l-0.007-0.009c-0.432-0.618-0.986-1.175-1.652-1.661
		c-0.11-0.081-0.223-0.159-0.339-0.235c-0.91-0.599-2.063-1.208-3.426-1.809l-2.365-1.042l-7.475-3.292
		c-0.895-0.395-1.628-0.518-2.065-0.348c-0.437,0.17-0.901,0.772-1.307,1.694l-1.233,2.805l3.999-0.001l0.824-1.875l4.623,2.037
		l1.77,0.779c2.197,0.968,3.784,1.942,4.832,2.968c0.127,0.125,0.248,0.25,0.359,0.376c0.891,1.01,1.709,2.767,0.548,5.407
		c-0.423,0.962-1.05,1.747-1.863,2.333c-1.016,0.779-2.146,1.156-3.366,1.125c-0.104-0.003-0.209-0.008-0.314-0.017
		c-1.143-0.092-2.529-0.502-4.236-1.255l-7.036-3.099l1.302-2.962l-0.278,0l-3.716-0.008l-6.257,14.234
		c-0.399,0.909-0.529,1.659-0.365,2.112c0.155,0.429,0.742,0.885,1.652,1.287l9.28,4.087c1.536,0.677,2.922,1.197,4.12,1.546
		c1.131,0.329,2.187,0.505,3.139,0.524c1.462-0.001,2.765-0.396,3.984-1.209c1.231-0.821,2.138-1.92,2.771-3.36
		c1.346-3.063,0.605-5.699-2.334-8.295l-2.945-2.601l3.926-0.077c3.076-0.061,5.021-1.253,6.12-3.754
		c0.314-0.716,0.498-1.453,0.545-2.192S47.084,37.075,46.873,36.351z M28.346,56.037l-8.009-3.529l5.085-11.57l7.569,3.334
		c2.437,1.074,4.083,2.29,5.03,3.718c0.74,1.116,1.39,2.978,0.275,5.512c-1.078,2.452-2.837,3.293-4.123,3.567
		c-0.401,0.085-0.818,0.132-1.253,0.139C31.575,57.182,30.064,56.793,28.346,56.037z"/>
</g>
<g>
</g>
<g>
</g>
<g>
</g>
<g>
</g>
<g>
</g>
<g>
</g>
</svg>
