<?xml version="1.0" encoding="utf-8"?>
<!-- Generator: Adobe Illustrator 16.0.0, SVG Export Plug-In . SVG Version: 6.00 Build 0)  -->
<!DOCTYPE svg PUBLIC "-//W3C//DTD SVG 1.1//EN" "http://www.w3.org/Graphics/SVG/1.1/DTD/svg11.dtd">
<svg version="1.1" id="Layer_1" xmlns="http://www.w3.org/2000/svg" xmlns:xlink="http://www.w3.org/1999/xlink" x="0px" y="0px"
	 width="720px" height="132.96px" viewBox="0 0 720 132.96" enable-background="new 0 0 720 132.96" xml:space="preserve">
<path fill="#50446F" d="M132.692,131.788c0,0.647-0.524,1.172-1.171,1.172H1.171c-0.646,0-1.171-0.524-1.171-1.172V1.29
	c0-0.647,0.524-1.172,1.171-1.172h130.351c0.647,0,1.171,0.525,1.171,1.172V131.788z"/>
<g>
	<path fill="#FFFFFF" d="M48.187,75.641h1.056h8.421l11.877,0.001c3.686,0,6.911-0.181,9.676-0.547
		c2.764-0.366,5.21-0.994,7.341-1.886c0.516-0.228,0.176-0.059,0.66-0.323c-2.207-2.159-5.55-4.211-10.177-6.25l-3.728-1.642
		c-1.671,0-2.426,0.001-4.347,0.001l-6.622,0l-8.421,0h-0.167l0.001-20.415l14.734,0.001c4.927,0,8.63,0.796,11.109,2.386
		c2.479,1.591,3.72,4.15,3.719,7.679c0,2.623-0.692,4.747-2.074,6.372c-0.229,0.204-0.482,0.406-0.762,0.606l0.129,0.058
		l4.852,2.137c2.872,1.265,5.301,2.547,7.217,3.809c0.245,0.161,0.482,0.326,0.713,0.496c0.75-0.81,0.647-0.889,1.265-1.854
		c2-3.132,3.002-6.654,3.002-10.567c0.001-8.459-4.589-14.153-13.77-17.081c6.988-3.243,10.483-8.362,10.483-15.358
		c0-2.035-0.333-3.967-1.001-5.795c-0.668-1.828-1.636-3.497-2.906-5.008c-1.271-1.511-2.731-2.759-4.382-3.746
		c-1.939-1.178-4.131-1.974-6.578-2.387c-2.447-0.414-5.339-0.622-8.674-0.622L48.191,5.703c-3.018,0-5.203,0.676-6.554,2.028
		c-1.351,1.352-2.026,3.57-2.026,6.654l-0.004,52.572c0,3.022,0.658,5.226,1.977,6.608C42.903,74.949,45.104,75.641,48.187,75.641z
		 M53.758,16.35l11.492,0.001c5.15,0,8.981,0.582,11.493,1.742c2.511,1.16,3.767,3.504,3.767,7.031c0,1.655-0.398,3.149-1.194,4.483
		c-1.018,1.875-2.488,3.146-4.412,3.813c-1.924,0.668-4.648,1.001-8.176,1l-12.971,0L53.758,16.35z"/>
	<path fill="#FFFFFF" d="M98.725,76.682c-0.452-1.541-1.138-2.966-2.038-4.233l-0.014-0.02c-0.91-1.301-2.078-2.474-3.479-3.498
		c-0.231-0.169-0.469-0.335-0.713-0.496c-1.917-1.262-4.345-2.543-7.217-3.809l-4.981-2.195l-15.743-6.935
		c-1.885-0.831-3.43-1.09-4.351-0.732c-0.92,0.358-1.897,1.625-2.751,3.568l-2.597,5.908l8.422-0.003l1.736-3.949l9.737,4.29
		l3.728,1.642c4.627,2.039,7.971,4.091,10.177,6.25c0.269,0.263,0.522,0.527,0.757,0.793c1.876,2.126,3.599,5.826,1.154,11.389
		c-0.891,2.026-2.211,3.679-3.925,4.912c-2.139,1.641-4.521,2.436-7.09,2.371c-0.22-0.006-0.44-0.017-0.662-0.035
		c-2.408-0.194-5.327-1.059-8.922-2.643l-14.819-6.528l2.742-6.239l-0.585-0.001l-7.828-0.017l-13.178,29.98
		c-0.841,1.914-1.114,3.494-0.769,4.448c0.327,0.903,1.562,1.865,3.479,2.71l19.545,8.609c3.235,1.426,6.156,2.521,8.679,3.256
		c2.381,0.692,4.604,1.064,6.61,1.104c3.079-0.002,5.825-0.835,8.393-2.546c2.594-1.729,4.502-4.044,5.836-7.077
		c2.836-6.452,1.274-12.004-4.916-17.471l-6.203-5.478l8.27-0.162c6.479-0.127,10.575-2.64,12.89-7.906
		c0.663-1.507,1.049-3.061,1.148-4.616C99.346,79.768,99.171,78.206,98.725,76.682z M59.702,118.144l-16.868-7.432l10.711-24.37
		l15.943,7.023c5.133,2.262,8.598,4.823,10.594,7.83c1.56,2.351,2.926,6.272,0.58,11.609c-2.27,5.164-5.976,6.937-8.685,7.514
		c-0.844,0.18-1.723,0.277-2.638,0.293C66.505,120.556,63.322,119.738,59.702,118.144z"/>
</g>
<g>
	<path fill="#FFFFFF" d="M195.957,89.603c3.869-1.22,7.139-2.948,9.808-5.183c2.669-2.235,4.696-4.904,6.083-8.008
		c1.386-3.104,2.08-6.538,2.08-10.304c0-5.545-1.656-10.014-4.966-13.408c-3.311-3.393-8.215-5.731-14.711-7.014
		c2.813-0.869,5.266-1.986,7.356-3.352c2.089-1.366,3.827-2.917,5.214-4.655c1.386-1.738,2.421-3.621,3.104-5.649
		c0.683-2.027,1.024-4.138,1.024-6.331c0-3.601-0.611-6.838-1.831-9.715c-1.221-2.875-3.104-5.307-5.649-7.293
		s-5.794-3.517-9.745-4.593c-3.953-1.076-8.659-1.614-14.122-1.614h-28.367v88.95h31.471
		C187.67,91.434,192.087,90.823,195.957,89.603z M163.275,11.98h16.325c6.621,0,11.504,1.221,14.649,3.662
		c3.145,2.442,4.718,6.27,4.718,11.483c0,2.235-0.394,4.294-1.18,6.176c-0.787,1.884-1.997,3.487-3.631,4.811
		c-1.635,1.325-3.693,2.359-6.177,3.104c-2.482,0.745-5.421,1.117-8.814,1.117h-15.891V11.98z M163.275,81.874V50.9h19.181
		c6.58,0,11.493,1.335,14.743,4.004c3.248,2.669,4.873,6.3,4.873,10.894c0,2.359-0.373,4.522-1.117,6.487
		c-0.745,1.966-1.915,3.662-3.507,5.09c-1.593,1.428-3.622,2.536-6.083,3.321c-2.462,0.786-5.411,1.179-8.845,1.179H163.275z"/>
	<path fill="#FFFFFF" d="M233.665,85.909c1.779,2.07,3.982,3.673,6.61,4.811c2.628,1.138,5.659,1.707,9.094,1.707
		c4.386,0,8.276-0.921,11.67-2.762c3.393-1.841,6.456-4.272,9.188-7.294l0.868,6.766c0.414,1.531,1.406,2.297,2.979,2.297h6.58
		v-62.88h-11.049v46.368c-2.401,2.731-5.028,4.863-7.884,6.394c-2.855,1.532-5.897,2.297-9.125,2.297
		c-4.429,0-7.738-1.304-9.932-3.91c-2.194-2.607-3.29-6.29-3.29-11.049V28.554h-11.049v40.099c0,3.559,0.444,6.808,1.334,9.746
		C230.55,81.337,231.886,83.841,233.665,85.909z"/>
	<path fill="#50446F" d="M300.177,14.308c0.723,0.725,1.552,1.294,2.482,1.707c0.931,0.414,1.935,0.621,3.011,0.621
		c1.075,0,2.089-0.207,3.041-0.621c0.952-0.413,1.79-0.982,2.515-1.707c0.724-0.724,1.303-1.552,1.737-2.483
		s0.652-1.934,0.652-3.011c0-1.076-0.218-2.1-0.652-3.072c-0.435-0.972-1.014-1.821-1.737-2.545
		c-0.725-0.723-1.563-1.292-2.515-1.707c-0.952-0.414-1.966-0.621-3.041-0.621c-1.076,0-2.08,0.208-3.011,0.621
		c-0.931,0.414-1.76,0.983-2.482,1.707c-0.726,0.725-1.294,1.573-1.707,2.545c-0.415,0.973-0.621,1.997-0.621,3.072
		c0,1.077,0.206,2.08,0.621,3.011C298.883,12.756,299.451,13.584,300.177,14.308z"/>
	<rect x="300.083" y="28.554" fill="#FFFFFF" width="11.049" height="62.88"/>
	<rect x="331.863" fill="#FFFFFF" width="11.05" height="91.434"/>
	<path fill="#FFFFFF" d="M402.688,81.502l0.994,7.635c0.413,1.531,1.406,2.297,2.979,2.297h6.58V0h-11.049v34.885
		c-2.152-2.359-4.594-4.19-7.324-5.493c-2.731-1.304-6.021-1.956-9.87-1.956c-4.263,0-8.069,0.838-11.422,2.514
		c-3.352,1.676-6.197,3.983-8.534,6.921c-2.339,2.939-4.128,6.404-5.37,10.397c-1.241,3.994-1.861,8.308-1.861,12.942
		c0,5.214,0.559,9.829,1.676,13.843s2.71,7.366,4.779,10.056c2.068,2.69,4.572,4.728,7.511,6.114
		c2.938,1.386,6.207,2.079,9.808,2.079c4.469,0,8.432-0.982,11.887-2.948C396.926,87.39,399.998,84.771,402.688,81.502z
		 M394.713,80.882c-2.711,1.655-5.866,2.482-9.467,2.482c-2.566,0-4.842-0.435-6.827-1.304c-1.987-0.869-3.663-2.244-5.028-4.128
		c-1.365-1.882-2.4-4.283-3.104-7.2c-0.704-2.917-1.056-6.425-1.056-10.521c0-7.738,1.572-13.697,4.718-17.877
		c3.145-4.179,7.655-6.27,13.532-6.27c2.938,0,5.617,0.549,8.038,1.645c2.421,1.097,4.645,3.011,6.673,5.742v30.416
		C399.916,76.888,397.422,79.227,394.713,80.882z"/>
	<path fill="#FFFFFF" d="M502.221,89.603c3.869-1.22,7.139-2.948,9.808-5.183c2.669-2.235,4.696-4.904,6.083-8.008
		c1.386-3.104,2.08-6.538,2.08-10.304c0-5.545-1.656-10.014-4.966-13.408c-3.312-3.393-8.216-5.731-14.712-7.014
		c2.814-0.869,5.266-1.986,7.355-3.352s3.827-2.917,5.215-4.655c1.386-1.738,2.42-3.621,3.104-5.649
		c0.683-2.027,1.023-4.138,1.023-6.331c0-3.601-0.61-6.838-1.831-9.715c-1.221-2.875-3.103-5.307-5.648-7.293
		c-2.545-1.986-5.794-3.517-9.745-4.593c-3.952-1.076-8.659-1.614-14.122-1.614h-28.367v88.95h31.471
		C493.934,91.434,498.352,90.823,502.221,89.603z M469.539,11.98h16.325c6.621,0,11.504,1.221,14.649,3.662
		c3.145,2.442,4.718,6.27,4.718,11.483c0,2.235-0.394,4.294-1.18,6.176c-0.786,1.884-1.997,3.487-3.631,4.811
		c-1.636,1.325-3.693,2.359-6.177,3.104c-2.482,0.745-5.422,1.117-8.814,1.117h-15.891V11.98z M469.539,81.874V50.9h19.181
		c6.58,0,11.493,1.335,14.742,4.004c3.249,2.669,4.873,6.3,4.873,10.894c0,2.359-0.372,4.522-1.117,6.487
		c-0.745,1.966-1.915,3.662-3.507,5.09c-1.594,1.428-3.622,2.536-6.084,3.321c-2.462,0.786-5.41,1.179-8.845,1.179H469.539z"/>
	<rect x="537.321" y="28.554" fill="#FFFFFF" width="11.05" height="62.88"/>
	<path fill="#50446F" d="M537.415,14.308c0.724,0.725,1.552,1.294,2.482,1.707c0.932,0.414,1.935,0.621,3.011,0.621
		s2.09-0.207,3.042-0.621c0.951-0.413,1.789-0.982,2.514-1.707c0.724-0.724,1.304-1.552,1.738-2.483s0.651-1.934,0.651-3.011
		c0-1.076-0.217-2.1-0.651-3.072c-0.435-0.972-1.015-1.821-1.738-2.545c-0.725-0.723-1.563-1.292-2.514-1.707
		c-0.952-0.414-1.966-0.621-3.042-0.621s-2.079,0.208-3.011,0.621c-0.931,0.414-1.759,0.983-2.482,1.707
		c-0.725,0.725-1.294,1.573-1.707,2.545c-0.414,0.973-0.621,1.997-0.621,3.072c0,1.077,0.207,2.08,0.621,3.011
		C536.121,12.756,536.69,13.584,537.415,14.308z"/>
	<path fill="#FFFFFF" d="M616.495,82.898c2.338-2.917,4.128-6.372,5.37-10.366c1.241-3.993,1.861-8.307,1.861-12.942
		c0-5.214-0.559-9.817-1.676-13.811c-1.117-3.993-2.711-7.345-4.779-10.056c-2.07-2.71-4.573-4.749-7.512-6.114
		c-2.938-1.365-6.228-2.048-9.869-2.048c-4.345,0-8.204,0.921-11.576,2.762c-3.373,1.842-6.363,4.273-8.97,7.294V0h-11.111v91.434
		h7.139c1.572,0,2.523-0.785,2.855-2.358l0.559-5.711c2.11,2.814,4.582,5.008,7.417,6.58c2.834,1.572,6.279,2.358,10.336,2.358
		c4.221,0,8.017-0.838,11.391-2.514C611.302,88.112,614.157,85.816,616.495,82.898z M594.056,83.737c-2.979,0-5.68-0.56-8.101-1.677
		c-2.42-1.117-4.624-3.041-6.61-5.772V45.872c2.275-3.02,4.769-5.358,7.479-7.014c2.71-1.655,5.866-2.483,9.466-2.483
		c2.524,0,4.78,0.435,6.767,1.304s3.662,2.245,5.027,4.127c1.366,1.884,2.41,4.294,3.135,7.232
		c0.724,2.938,1.087,6.456,1.087,10.552c0,7.739-1.573,13.698-4.718,17.877C604.442,81.647,599.932,83.737,594.056,83.737z"/>
	<rect x="638.499" fill="#FFFFFF" width="11.049" height="91.434"/>
	<path fill="#FFFFFF" d="M718.045,43.731c-1.304-3.497-3.114-6.435-5.432-8.814c-2.318-2.379-5.069-4.2-8.256-5.462
		c-3.187-1.262-6.662-1.894-10.428-1.894c-4.553,0-8.649,0.797-12.29,2.39c-3.643,1.593-6.726,3.786-9.249,6.58
		c-2.525,2.793-4.46,6.094-5.804,9.9c-1.346,3.808-2.018,7.905-2.018,12.291c0,5.421,0.745,10.221,2.234,14.4
		c1.49,4.181,3.569,7.688,6.238,10.521c2.669,2.835,5.835,4.987,9.497,6.456c3.662,1.468,7.666,2.203,12.012,2.203
		c2.275,0,4.572-0.197,6.89-0.59s4.563-0.982,6.735-1.769c2.172-0.786,4.21-1.79,6.114-3.011c1.902-1.22,3.538-2.658,4.903-4.314
		l-3.104-4.034c-0.497-0.703-1.201-1.056-2.11-1.056c-0.704,0-1.542,0.321-2.515,0.962c-0.973,0.643-2.183,1.335-3.631,2.08
		c-1.449,0.744-3.176,1.438-5.183,2.079c-2.008,0.643-4.397,0.962-7.17,0.962c-2.979,0-5.67-0.485-8.069-1.458
		c-2.4-0.973-4.47-2.441-6.207-4.408c-1.738-1.964-3.104-4.416-4.098-7.355c-0.992-2.938-1.531-6.393-1.613-10.366h41.837
		c1.034,0,1.738-0.289,2.11-0.869c0.373-0.579,0.559-1.738,0.559-3.476C720,51.21,719.349,47.228,718.045,43.731z M675.866,53.135
		c0.745-5.462,2.648-9.735,5.711-12.818c3.063-3.083,7.263-4.625,12.601-4.625c2.523,0,4.77,0.425,6.735,1.272
		c1.965,0.849,3.631,2.048,4.997,3.6c1.365,1.552,2.399,3.394,3.104,5.524c0.703,2.132,1.055,4.48,1.055,7.045H675.866z"/>
	<polygon fill="#FFFFFF" points="155.671,111.934 161.654,111.934 161.654,128.276 164.151,128.276 164.151,111.934 
		170.109,111.934 170.109,109.836 155.671,109.836 	"/>
	<path fill="#FFFFFF" d="M182.108,116.393c-0.365-0.433-0.819-0.768-1.364-1.004c-0.545-0.235-1.173-0.354-1.885-0.354
		c-0.883,0-1.665,0.178-2.342,0.534c-0.678,0.356-1.295,0.83-1.853,1.422v-7.67h-2.291v18.955h2.291v-9.6
		c0.497-0.558,1.04-0.999,1.628-1.325c0.587-0.326,1.22-0.489,1.898-0.489c0.926,0,1.615,0.272,2.065,0.817
		c0.45,0.545,0.675,1.311,0.675,2.297v8.3h2.291v-8.3c0-0.737-0.095-1.411-0.284-2.021
		C182.75,117.347,182.473,116.826,182.108,116.393z"/>
	<path fill="#FFFFFF" d="M195.716,116.561c-0.481-0.494-1.051-0.871-1.711-1.133c-0.661-0.262-1.381-0.393-2.162-0.393
		c-0.944,0-1.793,0.165-2.548,0.495s-1.394,0.785-1.917,1.364c-0.523,0.579-0.924,1.264-1.203,2.053
		c-0.279,0.789-0.418,1.639-0.418,2.548c0,1.124,0.154,2.119,0.463,2.985c0.309,0.866,0.74,1.594,1.293,2.181
		c0.554,0.588,1.21,1.034,1.969,1.339c0.759,0.304,1.589,0.456,2.49,0.456c0.472,0,0.948-0.04,1.428-0.122
		c0.48-0.081,0.946-0.203,1.396-0.366c0.451-0.163,0.873-0.371,1.268-0.624s0.733-0.552,1.017-0.895l-0.644-0.836
		c-0.103-0.146-0.249-0.22-0.438-0.22c-0.146,0-0.319,0.067-0.521,0.2s-0.453,0.276-0.752,0.431
		c-0.301,0.154-0.659,0.298-1.075,0.432c-0.416,0.133-0.912,0.199-1.486,0.199c-0.618,0-1.175-0.102-1.673-0.303
		s-0.926-0.506-1.287-0.914c-0.36-0.407-0.644-0.915-0.85-1.524c-0.206-0.608-0.317-1.325-0.334-2.149h8.673
		c0.214,0,0.36-0.06,0.438-0.18s0.116-0.36,0.116-0.721c0-0.927-0.135-1.752-0.405-2.477
		C196.572,117.662,196.196,117.054,195.716,116.561z M188.098,120.337c0.155-1.133,0.549-2.019,1.184-2.657
		c0.635-0.639,1.505-0.959,2.612-0.959c0.523,0,0.988,0.088,1.396,0.264c0.407,0.177,0.753,0.425,1.036,0.746
		c0.283,0.322,0.498,0.704,0.644,1.146c0.146,0.442,0.219,0.929,0.219,1.461H188.098z"/>
	<path fill="#B2A0CD" d="M217.514,121.045c0,0.771-0.109,1.479-0.328,2.123c-0.219,0.644-0.537,1.196-0.953,1.66
		c-0.417,0.463-0.924,0.823-1.525,1.08c-0.601,0.258-1.282,0.387-2.046,0.387s-1.448-0.131-2.052-0.393
		c-0.605-0.262-1.115-0.624-1.532-1.087c-0.416-0.464-0.733-1.018-0.952-1.66c-0.219-0.644-0.328-1.352-0.328-2.124v-11.195h-2.483
		v11.209c0,1.063,0.169,2.05,0.508,2.959c0.338,0.909,0.826,1.697,1.46,2.361c0.635,0.665,1.407,1.187,2.316,1.563
		c0.909,0.378,1.93,0.566,3.063,0.566s2.153-0.188,3.063-0.566c0.909-0.377,1.679-0.898,2.31-1.563
		c0.63-0.664,1.115-1.452,1.454-2.361c0.339-0.909,0.508-1.896,0.508-2.959v-11.209h-2.483V121.045z"/>
	<rect x="224.18" y="109.321" fill="#B2A0CD" width="2.291" height="18.955"/>
	<path fill="#B2A0CD" d="M236.623,125.985c-0.069,0-0.148,0.033-0.238,0.097c-0.09,0.064-0.199,0.136-0.328,0.213
		c-0.128,0.077-0.281,0.147-0.457,0.212c-0.176,0.064-0.384,0.097-0.625,0.097c-0.42,0-0.764-0.133-1.029-0.398
		c-0.266-0.267-0.399-0.674-0.399-1.223v-7.824h3.732v-1.66h-3.732v-4.49h-1.158c-0.146,0-0.266,0.04-0.36,0.122
		c-0.094,0.081-0.15,0.187-0.167,0.315l-0.527,4.027l-2.137,0.271v0.913c0,0.172,0.047,0.299,0.142,0.38
		c0.094,0.082,0.21,0.122,0.347,0.122h1.57v7.979c0,1.081,0.277,1.909,0.83,2.483c0.554,0.574,1.345,0.862,2.374,0.862
		c0.592,0,1.167-0.105,1.725-0.315s1.033-0.5,1.428-0.868l-0.669-1.094C236.85,126.059,236.743,125.985,236.623,125.985z"/>
	<path fill="#B2A0CD" d="M242.677,109.984c-0.15-0.15-0.324-0.268-0.521-0.354s-0.408-0.129-0.631-0.129s-0.431,0.043-0.624,0.129
		c-0.193,0.086-0.364,0.203-0.515,0.354s-0.268,0.326-0.354,0.527c-0.085,0.202-0.128,0.414-0.128,0.638
		c0,0.223,0.043,0.431,0.128,0.624c0.086,0.192,0.204,0.364,0.354,0.515c0.15,0.149,0.322,0.268,0.515,0.354
		c0.193,0.086,0.401,0.129,0.624,0.129s0.434-0.043,0.631-0.129s0.371-0.204,0.521-0.354c0.15-0.15,0.27-0.322,0.36-0.515
		c0.09-0.193,0.135-0.401,0.135-0.624c0-0.224-0.045-0.436-0.135-0.638C242.947,110.311,242.827,110.135,242.677,109.984z"/>
	<rect x="240.367" y="115.241" fill="#B2A0CD" width="2.291" height="13.035"/>
	<path fill="#B2A0CD" d="M263.214,116.322c-0.372-0.421-0.827-0.74-1.363-0.959s-1.147-0.328-1.834-0.328
		c-0.429,0-0.852,0.052-1.267,0.154c-0.417,0.104-0.809,0.267-1.178,0.489c-0.369,0.223-0.701,0.506-0.998,0.85
		c-0.295,0.343-0.534,0.75-0.714,1.222c-0.24-0.832-0.633-1.492-1.177-1.981c-0.545-0.489-1.259-0.733-2.143-0.733
		c-0.79,0-1.482,0.188-2.078,0.566c-0.597,0.377-1.135,0.861-1.615,1.454l-0.167-1.339c-0.085-0.317-0.292-0.476-0.617-0.476h-1.364
		v13.035h2.291v-9.716c0.403-0.522,0.847-0.937,1.332-1.241c0.485-0.305,1.011-0.457,1.577-0.457c0.806,0,1.419,0.258,1.84,0.772
		c0.42,0.515,0.63,1.295,0.63,2.342v8.3h2.291v-8.3c0-0.515,0.075-0.967,0.225-1.357c0.15-0.391,0.354-0.715,0.611-0.972
		c0.257-0.258,0.555-0.452,0.895-0.586c0.338-0.133,0.697-0.199,1.074-0.199c0.849,0,1.497,0.264,1.943,0.791
		c0.446,0.528,0.67,1.303,0.67,2.323v8.3h2.29v-8.3c0-0.789-0.099-1.49-0.296-2.104
		C263.873,117.259,263.588,116.742,263.214,116.322z"/>
	<path fill="#B2A0CD" d="M276.23,116.373c-0.386-0.429-0.862-0.763-1.429-1.003c-0.565-0.24-1.214-0.36-1.942-0.36
		c-1.013,0-1.935,0.171-2.767,0.515c-0.833,0.343-1.609,0.861-2.329,1.557l0.411,0.733c0.068,0.12,0.161,0.222,0.276,0.303
		c0.116,0.082,0.252,0.122,0.406,0.122c0.197,0,0.396-0.07,0.598-0.212c0.202-0.142,0.442-0.301,0.721-0.477
		c0.279-0.176,0.609-0.335,0.991-0.476c0.382-0.142,0.852-0.213,1.409-0.213c0.849,0,1.49,0.261,1.924,0.783
		c0.433,0.522,0.649,1.293,0.649,2.312v1.023c-1.476,0-2.724,0.118-3.744,0.354c-1.021,0.237-1.847,0.54-2.478,0.91
		s-1.087,0.795-1.37,1.272s-0.425,0.975-0.425,1.491c0,0.594,0.097,1.108,0.29,1.543c0.192,0.435,0.452,0.794,0.777,1.078
		c0.327,0.284,0.71,0.498,1.152,0.64c0.441,0.142,0.915,0.213,1.422,0.213c0.497,0,0.95-0.043,1.357-0.129s0.792-0.212,1.152-0.38
		c0.36-0.167,0.703-0.373,1.029-0.617c0.325-0.245,0.66-0.521,1.004-0.83l0.257,1.21c0.043,0.223,0.133,0.368,0.271,0.438
		c0.137,0.068,0.317,0.103,0.54,0.103h1.017v-8.339c0-0.729-0.099-1.397-0.296-2.007S276.616,116.803,276.23,116.373z
		 M275.149,125.124c-0.257,0.274-0.521,0.519-0.791,0.733c-0.271,0.214-0.554,0.396-0.85,0.547
		c-0.296,0.149-0.611,0.266-0.945,0.347c-0.335,0.082-0.704,0.123-1.107,0.123c-0.3,0-0.579-0.037-0.836-0.11
		c-0.258-0.073-0.48-0.189-0.669-0.35c-0.189-0.159-0.339-0.364-0.45-0.614c-0.112-0.251-0.168-0.549-0.168-0.894
		c0-0.362,0.104-0.689,0.315-0.983c0.21-0.293,0.547-0.548,1.01-0.764c0.464-0.216,1.064-0.391,1.802-0.524
		c0.738-0.134,1.635-0.2,2.689-0.2V125.124z"/>
	<path fill="#B2A0CD" d="M286.988,125.985c-0.069,0-0.148,0.033-0.238,0.097c-0.09,0.064-0.199,0.136-0.328,0.213
		s-0.281,0.147-0.457,0.212s-0.384,0.097-0.624,0.097c-0.42,0-0.764-0.133-1.029-0.398c-0.266-0.267-0.399-0.674-0.399-1.223v-7.824
		h3.732v-1.66h-3.732v-4.49h-1.158c-0.146,0-0.266,0.04-0.359,0.122c-0.095,0.081-0.15,0.187-0.168,0.315l-0.527,4.027l-2.137,0.271
		v0.913c0,0.172,0.048,0.299,0.143,0.38c0.094,0.082,0.21,0.122,0.348,0.122h1.569v7.979c0,1.081,0.276,1.909,0.83,2.483
		s1.345,0.862,2.374,0.862c0.592,0,1.167-0.105,1.725-0.315s1.033-0.5,1.428-0.868l-0.669-1.094
		C287.215,126.059,287.108,125.985,286.988,125.985z"/>
	<path fill="#B2A0CD" d="M299.508,116.561c-0.48-0.494-1.051-0.871-1.711-1.133s-1.381-0.393-2.162-0.393
		c-0.943,0-1.793,0.165-2.548,0.495s-1.395,0.785-1.917,1.364c-0.523,0.579-0.925,1.264-1.203,2.053
		c-0.279,0.789-0.419,1.639-0.419,2.548c0,1.124,0.155,2.119,0.464,2.985s0.739,1.594,1.293,2.181
		c0.554,0.588,1.21,1.034,1.969,1.339c0.76,0.304,1.59,0.456,2.49,0.456c0.472,0,0.948-0.04,1.429-0.122
		c0.479-0.081,0.945-0.203,1.396-0.366s0.873-0.371,1.268-0.624s0.733-0.552,1.017-0.895l-0.644-0.836
		c-0.103-0.146-0.249-0.22-0.438-0.22c-0.146,0-0.319,0.067-0.521,0.2c-0.202,0.133-0.453,0.276-0.753,0.431
		c-0.301,0.154-0.658,0.298-1.075,0.432c-0.416,0.133-0.911,0.199-1.485,0.199c-0.618,0-1.176-0.102-1.673-0.303
		c-0.498-0.201-0.927-0.506-1.287-0.914c-0.36-0.407-0.644-0.915-0.85-1.524c-0.206-0.608-0.317-1.325-0.334-2.149h8.673
		c0.214,0,0.36-0.06,0.438-0.18s0.115-0.36,0.115-0.721c0-0.927-0.135-1.752-0.405-2.477
		C300.363,117.662,299.988,117.054,299.508,116.561z M291.891,120.337c0.154-1.133,0.549-2.019,1.184-2.657s1.506-0.959,2.612-0.959
		c0.522,0,0.988,0.088,1.396,0.264c0.407,0.177,0.752,0.425,1.035,0.746c0.283,0.322,0.498,0.704,0.644,1.146
		c0.146,0.442,0.219,0.929,0.219,1.461H291.891z"/>
	<path fill="#FFFFFF" d="M320.174,111.394c-0.566-0.497-1.28-0.882-2.143-1.152c-0.862-0.27-1.877-0.405-3.043-0.405h-5.443v18.44
		h2.483v-6.897h2.96c1.106,0,2.089-0.144,2.946-0.431s1.576-0.688,2.155-1.203s1.019-1.128,1.319-1.841
		c0.3-0.712,0.45-1.496,0.45-2.354c0-0.866-0.14-1.651-0.418-2.354C321.162,112.492,320.74,111.892,320.174,111.394z
		 M319.08,117.106c-0.188,0.473-0.468,0.878-0.837,1.217c-0.368,0.339-0.825,0.603-1.37,0.791s-1.173,0.283-1.885,0.283h-2.96
		v-7.592h2.96c1.467,0,2.563,0.33,3.287,0.99c0.725,0.661,1.088,1.579,1.088,2.754C319.363,116.116,319.269,116.635,319.08,117.106z
		"/>
	<path fill="#FFFFFF" d="M330.79,115.01c-0.884,0-1.653,0.255-2.31,0.766s-1.208,1.22-1.654,2.129l-0.154-2.033
		c-0.034-0.231-0.099-0.395-0.192-0.488c-0.095-0.095-0.267-0.142-0.515-0.142h-1.313v13.035h2.29v-8.3
		c0.36-0.884,0.809-1.558,1.345-2.021s1.203-0.695,2.001-0.695c0.446,0,0.793,0.041,1.042,0.123
		c0.249,0.081,0.434,0.122,0.554,0.122c0.206,0,0.339-0.107,0.398-0.322l0.297-1.711c-0.249-0.146-0.52-0.26-0.812-0.341
		C331.477,115.051,331.15,115.01,330.79,115.01z"/>
	<path fill="#FFFFFF" d="M344.835,116.862c-0.536-0.583-1.188-1.034-1.955-1.352c-0.769-0.317-1.628-0.476-2.581-0.476
		c-0.951,0-1.812,0.158-2.579,0.476c-0.769,0.317-1.422,0.769-1.963,1.352c-0.54,0.584-0.956,1.289-1.248,2.117
		s-0.438,1.752-0.438,2.772c0,1.03,0.146,1.956,0.438,2.78c0.292,0.823,0.708,1.526,1.248,2.11c0.541,0.583,1.194,1.031,1.963,1.344
		c0.768,0.313,1.628,0.47,2.579,0.47c0.953,0,1.813-0.156,2.581-0.47c0.767-0.313,1.419-0.761,1.955-1.344
		c0.536-0.584,0.948-1.287,1.235-2.11c0.287-0.824,0.432-1.75,0.432-2.78c0-1.021-0.145-1.944-0.432-2.772
		S345.371,117.446,344.835,116.862z M343.182,125.375c-0.635,0.861-1.596,1.293-2.883,1.293c-0.651,0-1.218-0.111-1.698-0.335
		c-0.48-0.223-0.881-0.542-1.203-0.958c-0.321-0.416-0.562-0.929-0.72-1.538c-0.159-0.609-0.238-1.3-0.238-2.072
		c0-0.771,0.079-1.464,0.238-2.078c0.158-0.612,0.398-1.13,0.72-1.551c0.322-0.42,0.723-0.741,1.203-0.965
		c0.48-0.223,1.047-0.334,1.698-0.334c1.287,0,2.248,0.433,2.883,1.299c0.635,0.867,0.953,2.077,0.953,3.629
		C344.135,123.31,343.816,124.513,343.182,125.375z"/>
	<path fill="#FFFFFF" d="M349.59,129.229c0,0.694-0.142,1.198-0.425,1.512c-0.283,0.313-0.759,0.469-1.428,0.469
		c-0.112,0-0.206,0-0.283,0s-0.15,0-0.219,0c-0.129,0-0.224,0.016-0.283,0.045c-0.06,0.03-0.099,0.102-0.116,0.213l-0.103,1.235
		c0.231,0.086,0.463,0.149,0.694,0.192s0.489,0.064,0.772,0.064c0.651,0,1.212-0.096,1.68-0.289
		c0.467-0.193,0.849-0.457,1.146-0.791c0.295-0.335,0.512-0.728,0.649-1.178c0.137-0.451,0.206-0.938,0.206-1.461V115.24h-2.291
		V129.229z"/>
	<path fill="#FFFFFF" d="M351.9,109.984c-0.15-0.15-0.324-0.268-0.521-0.354s-0.408-0.129-0.631-0.129
		c-0.224,0-0.431,0.043-0.624,0.129s-0.364,0.203-0.515,0.354s-0.269,0.326-0.354,0.527c-0.085,0.202-0.128,0.414-0.128,0.638
		c0,0.223,0.043,0.431,0.128,0.624c0.086,0.192,0.204,0.364,0.354,0.515c0.15,0.149,0.321,0.268,0.515,0.354s0.4,0.129,0.624,0.129
		c0.223,0,0.434-0.043,0.631-0.129s0.371-0.204,0.521-0.354c0.149-0.15,0.27-0.322,0.359-0.515c0.091-0.193,0.136-0.401,0.136-0.624
		c0-0.224-0.045-0.436-0.136-0.638C352.17,110.311,352.05,110.135,351.9,109.984z"/>
	<path fill="#FFFFFF" d="M364.902,116.561c-0.479-0.494-1.051-0.871-1.711-1.133s-1.381-0.393-2.162-0.393
		c-0.943,0-1.793,0.165-2.547,0.495c-0.756,0.33-1.395,0.785-1.918,1.364s-0.924,1.264-1.203,2.053s-0.418,1.639-0.418,2.548
		c0,1.124,0.154,2.119,0.463,2.985s0.74,1.594,1.294,2.181c0.553,0.588,1.209,1.034,1.968,1.339c0.76,0.304,1.59,0.456,2.49,0.456
		c0.472,0,0.948-0.04,1.429-0.122c0.48-0.081,0.945-0.203,1.396-0.366c0.451-0.163,0.873-0.371,1.268-0.624s0.734-0.552,1.018-0.895
		l-0.645-0.836c-0.103-0.146-0.248-0.22-0.438-0.22c-0.146,0-0.319,0.067-0.521,0.2c-0.202,0.133-0.453,0.276-0.753,0.431
		c-0.301,0.154-0.658,0.298-1.074,0.432c-0.416,0.133-0.912,0.199-1.486,0.199c-0.618,0-1.176-0.102-1.673-0.303
		c-0.498-0.201-0.927-0.506-1.287-0.914c-0.36-0.407-0.644-0.915-0.849-1.524c-0.206-0.608-0.318-1.325-0.335-2.149h8.673
		c0.215,0,0.36-0.06,0.438-0.18s0.116-0.36,0.116-0.721c0-0.927-0.136-1.752-0.405-2.477
		C365.759,117.662,365.383,117.054,364.902,116.561z M357.285,120.337c0.154-1.133,0.549-2.019,1.184-2.657s1.506-0.959,2.612-0.959
		c0.523,0,0.989,0.088,1.396,0.264c0.407,0.177,0.753,0.425,1.036,0.746c0.283,0.322,0.497,0.704,0.644,1.146
		c0.146,0.442,0.218,0.929,0.218,1.461H357.285z"/>
	<path fill="#FFFFFF" d="M377.912,125.394c-0.154,0-0.309,0.067-0.463,0.2s-0.352,0.28-0.592,0.443s-0.541,0.312-0.9,0.444
		c-0.36,0.133-0.82,0.199-1.377,0.199c-0.584,0-1.109-0.109-1.577-0.328s-0.864-0.536-1.19-0.952
		c-0.325-0.416-0.578-0.931-0.759-1.544s-0.271-1.314-0.271-2.104c0-0.755,0.084-1.437,0.252-2.046
		c0.167-0.609,0.415-1.128,0.745-1.557c0.331-0.429,0.74-0.757,1.229-0.984s1.051-0.342,1.686-0.342c0.48,0,0.886,0.055,1.216,0.161
		c0.33,0.107,0.611,0.226,0.843,0.354c0.232,0.128,0.423,0.246,0.573,0.354c0.149,0.107,0.29,0.161,0.418,0.161
		c0.129,0,0.228-0.026,0.296-0.077c0.068-0.052,0.138-0.125,0.206-0.219l0.604-0.824c-0.54-0.54-1.162-0.958-1.865-1.254
		c-0.704-0.297-1.511-0.444-2.42-0.444c-0.986,0-1.861,0.167-2.625,0.502c-0.764,0.334-1.404,0.8-1.924,1.396
		c-0.519,0.596-0.913,1.306-1.184,2.129c-0.27,0.824-0.405,1.721-0.405,2.689c0,1.064,0.148,2.012,0.444,2.844
		c0.296,0.833,0.701,1.534,1.216,2.104s1.121,1.006,1.821,1.306c0.698,0.301,1.455,0.45,2.271,0.45c0.943,0,1.841-0.16,2.689-0.482
		c0.85-0.321,1.557-0.83,2.123-1.524l-0.644-0.836C378.256,125.467,378.109,125.394,377.912,125.394z"/>
	<path fill="#FFFFFF" d="M387.486,125.985c-0.069,0-0.148,0.033-0.238,0.097c-0.09,0.064-0.199,0.136-0.328,0.213
		s-0.281,0.147-0.457,0.212s-0.384,0.097-0.624,0.097c-0.421,0-0.764-0.133-1.029-0.398c-0.267-0.267-0.399-0.674-0.399-1.223
		v-7.824h3.732v-1.66h-3.732v-4.49h-1.158c-0.146,0-0.266,0.04-0.36,0.122c-0.094,0.081-0.149,0.187-0.167,0.315l-0.527,4.027
		l-2.137,0.271v0.913c0,0.172,0.047,0.299,0.143,0.38c0.094,0.082,0.21,0.122,0.347,0.122h1.57v7.979
		c0,1.081,0.276,1.909,0.83,2.483s1.345,0.862,2.374,0.862c0.592,0,1.166-0.105,1.725-0.315c0.557-0.21,1.033-0.5,1.428-0.868
		l-0.669-1.094C387.713,126.059,387.605,125.985,387.486,125.985z"/>
	<path fill="#FFFFFF" d="M409.297,124.468c-0.137,0-0.278,0.064-0.425,0.192c-0.326,0.292-0.649,0.543-0.972,0.753
		c-0.321,0.211-0.669,0.384-1.042,0.521c-0.373,0.137-0.778,0.238-1.216,0.302c-0.438,0.064-0.931,0.097-1.48,0.097
		c-0.9,0-1.741-0.162-2.521-0.488c-0.781-0.326-1.457-0.801-2.027-1.422c-0.57-0.622-1.021-1.384-1.351-2.284
		c-0.33-0.901-0.495-1.926-0.495-3.076c0-1.115,0.165-2.123,0.495-3.023c0.33-0.901,0.791-1.664,1.384-2.291
		c0.592-0.626,1.297-1.108,2.116-1.447s1.722-0.509,2.709-0.509c0.549,0,1.033,0.041,1.454,0.122
		c0.42,0.082,0.789,0.183,1.106,0.303c0.317,0.121,0.592,0.249,0.823,0.386c0.232,0.138,0.434,0.267,0.605,0.387
		c0.171,0.12,0.319,0.221,0.443,0.303c0.124,0.081,0.242,0.122,0.354,0.122c0.146,0,0.257-0.028,0.334-0.084
		s0.146-0.126,0.206-0.212l0.811-1.146c-0.764-0.721-1.637-1.291-2.618-1.712c-0.983-0.42-2.151-0.63-3.507-0.63
		c-1.373,0-2.628,0.229-3.764,0.688c-1.137,0.459-2.113,1.104-2.928,1.937c-0.815,0.832-1.447,1.827-1.898,2.985
		c-0.45,1.158-0.676,2.432-0.676,3.821s0.211,2.664,0.631,3.822s1.013,2.151,1.776,2.979c0.763,0.828,1.686,1.472,2.767,1.931
		c1.08,0.459,2.286,0.688,3.615,0.688c1.519,0,2.816-0.244,3.893-0.733c1.077-0.489,1.993-1.171,2.748-2.046l-0.979-1.068
		C409.559,124.523,409.434,124.468,409.297,124.468z"/>
	<path fill="#FFFFFF" d="M421.972,116.373c-0.386-0.429-0.862-0.763-1.429-1.003c-0.565-0.24-1.214-0.36-1.942-0.36
		c-1.013,0-1.935,0.171-2.767,0.515c-0.833,0.343-1.609,0.861-2.33,1.557l0.412,0.733c0.068,0.12,0.161,0.222,0.277,0.303
		c0.115,0.082,0.251,0.122,0.405,0.122c0.197,0,0.396-0.07,0.598-0.212c0.202-0.142,0.442-0.301,0.721-0.477
		c0.279-0.176,0.609-0.335,0.991-0.476c0.381-0.142,0.852-0.213,1.409-0.213c0.849,0,1.49,0.261,1.924,0.783
		c0.433,0.522,0.649,1.293,0.649,2.312v1.023c-1.476,0-2.724,0.118-3.744,0.354c-1.021,0.237-1.847,0.54-2.478,0.91
		c-0.63,0.37-1.087,0.795-1.37,1.272s-0.425,0.975-0.425,1.491c0,0.594,0.097,1.108,0.29,1.543c0.192,0.435,0.452,0.794,0.777,1.078
		c0.326,0.284,0.711,0.498,1.152,0.64s0.916,0.213,1.422,0.213c0.498,0,0.95-0.043,1.357-0.129s0.792-0.212,1.152-0.38
		c0.36-0.167,0.703-0.373,1.029-0.617c0.325-0.245,0.66-0.521,1.004-0.83l0.257,1.21c0.043,0.223,0.133,0.368,0.271,0.438
		c0.137,0.068,0.317,0.103,0.54,0.103h1.017v-8.339c0-0.729-0.099-1.397-0.296-2.007S422.357,116.803,421.972,116.373z
		 M420.891,125.124c-0.257,0.274-0.521,0.519-0.791,0.733c-0.271,0.214-0.554,0.396-0.85,0.547
		c-0.296,0.149-0.611,0.266-0.945,0.347c-0.335,0.082-0.704,0.123-1.107,0.123c-0.3,0-0.578-0.037-0.836-0.11
		s-0.48-0.189-0.669-0.35c-0.188-0.159-0.339-0.364-0.45-0.614c-0.112-0.251-0.168-0.549-0.168-0.894
		c0-0.362,0.105-0.689,0.315-0.983c0.21-0.293,0.547-0.548,1.01-0.764c0.464-0.216,1.064-0.391,1.802-0.524
		c0.738-0.134,1.635-0.2,2.689-0.2V125.124z"/>
	<path fill="#FFFFFF" d="M432.755,115.01c-0.884,0-1.653,0.255-2.31,0.766s-1.208,1.22-1.653,2.129l-0.155-2.033
		c-0.034-0.231-0.098-0.395-0.192-0.488c-0.095-0.095-0.267-0.142-0.515-0.142h-1.313v13.035h2.29v-8.3
		c0.36-0.884,0.809-1.558,1.345-2.021s1.203-0.695,2.001-0.695c0.446,0,0.794,0.041,1.043,0.123
		c0.248,0.081,0.433,0.122,0.553,0.122c0.206,0,0.339-0.107,0.399-0.322l0.296-1.711c-0.249-0.146-0.52-0.26-0.811-0.341
		C433.441,115.051,433.115,115.01,432.755,115.01z"/>
	<rect x="442.779" y="109.836" fill="#FFFFFF" width="2.496" height="18.44"/>
	<path fill="#FFFFFF" d="M459.591,116.393c-0.364-0.433-0.819-0.768-1.364-1.004c-0.545-0.235-1.173-0.354-1.885-0.354
		c-0.918,0-1.727,0.192-2.426,0.579c-0.699,0.386-1.332,0.893-1.897,1.519l-0.181-1.416c-0.086-0.317-0.292-0.476-0.617-0.476
		h-1.364v13.035h2.29v-9.6c0.498-0.558,1.04-0.999,1.628-1.325s1.221-0.489,1.898-0.489c0.927,0,1.615,0.272,2.065,0.817
		s0.675,1.311,0.675,2.297v8.3h2.291v-8.3c0-0.737-0.095-1.411-0.283-2.021S459.955,116.826,459.591,116.393z"/>
	<path fill="#FFFFFF" d="M467.306,109.875c-0.55,0.206-1.019,0.509-1.409,0.907c-0.391,0.399-0.69,0.888-0.9,1.467
		c-0.211,0.579-0.315,1.242-0.315,1.988v1.261h-2.06v0.939c0,0.172,0.059,0.303,0.174,0.393c0.116,0.091,0.264,0.156,0.444,0.199
		l1.441,0.168v11.079h2.303v-11.118h3.693v-1.66h-3.771v-1.196c0-0.558,0.063-1.025,0.188-1.402
		c0.124-0.378,0.302-0.683,0.533-0.914s0.509-0.398,0.83-0.502c0.322-0.103,0.68-0.154,1.075-0.154h0.398
		c0.249,0,0.441-0.018,0.579-0.052c0.137-0.034,0.21-0.137,0.219-0.309l0.052-1.146c-0.498-0.171-1.038-0.257-1.622-0.257
		C468.473,109.566,467.854,109.669,467.306,109.875z"/>
	<path fill="#FFFFFF" d="M482.65,116.862c-0.536-0.583-1.188-1.034-1.956-1.352s-1.628-0.476-2.58-0.476s-1.813,0.158-2.58,0.476
		s-1.422,0.769-1.962,1.352c-0.541,0.584-0.957,1.289-1.249,2.117c-0.291,0.828-0.438,1.752-0.438,2.772
		c0,1.03,0.146,1.956,0.438,2.78c0.292,0.823,0.708,1.526,1.249,2.11c0.54,0.583,1.194,1.031,1.962,1.344
		c0.768,0.313,1.628,0.47,2.58,0.47s1.813-0.156,2.58-0.47c0.768-0.313,1.42-0.761,1.956-1.344c0.536-0.584,0.948-1.287,1.235-2.11
		c0.287-0.824,0.431-1.75,0.431-2.78c0-1.021-0.144-1.944-0.431-2.772S483.187,117.446,482.65,116.862z M480.997,125.375
		c-0.635,0.861-1.596,1.293-2.883,1.293c-0.652,0-1.218-0.111-1.698-0.335c-0.48-0.223-0.882-0.542-1.203-0.958
		c-0.322-0.416-0.563-0.929-0.721-1.538c-0.159-0.609-0.238-1.3-0.238-2.072c0-0.771,0.079-1.464,0.238-2.078
		c0.158-0.612,0.398-1.13,0.721-1.551c0.321-0.42,0.723-0.741,1.203-0.965c0.48-0.223,1.046-0.334,1.698-0.334
		c1.287,0,2.248,0.433,2.883,1.299c0.635,0.867,0.952,2.077,0.952,3.629C481.949,123.31,481.632,124.513,480.997,125.375z"/>
	<path fill="#FFFFFF" d="M493.286,115.01c-0.884,0-1.653,0.255-2.31,0.766s-1.208,1.22-1.654,2.129l-0.154-2.033
		c-0.034-0.231-0.099-0.395-0.193-0.488c-0.094-0.095-0.266-0.142-0.514-0.142h-1.313v13.035h2.29v-8.3
		c0.36-0.884,0.809-1.558,1.345-2.021s1.203-0.695,2.001-0.695c0.446,0,0.793,0.041,1.042,0.123
		c0.249,0.081,0.434,0.122,0.554,0.122c0.206,0,0.339-0.107,0.398-0.322l0.296-1.711c-0.248-0.146-0.519-0.26-0.811-0.341
		C493.973,115.051,493.646,115.01,493.286,115.01z"/>
	<path fill="#FFFFFF" d="M514.035,116.322c-0.373-0.421-0.828-0.74-1.363-0.959c-0.537-0.219-1.147-0.328-1.834-0.328
		c-0.429,0-0.852,0.052-1.268,0.154c-0.416,0.104-0.809,0.267-1.178,0.489s-0.701,0.506-0.997,0.85
		c-0.296,0.343-0.534,0.75-0.714,1.222c-0.24-0.832-0.633-1.492-1.178-1.981s-1.259-0.733-2.143-0.733
		c-0.789,0-1.481,0.188-2.078,0.566c-0.596,0.377-1.135,0.861-1.614,1.454l-0.168-1.339c-0.085-0.317-0.292-0.476-0.617-0.476
		h-1.364v13.035h2.291v-9.716c0.402-0.522,0.847-0.937,1.331-1.241s1.011-0.457,1.577-0.457c0.806,0,1.419,0.258,1.84,0.772
		c0.42,0.515,0.63,1.295,0.63,2.342v8.3h2.291v-8.3c0-0.515,0.075-0.967,0.226-1.357c0.149-0.391,0.354-0.715,0.611-0.972
		c0.257-0.258,0.555-0.452,0.894-0.586c0.339-0.133,0.697-0.199,1.074-0.199c0.85,0,1.497,0.264,1.943,0.791
		c0.446,0.528,0.669,1.303,0.669,2.323v8.3h2.291v-8.3c0-0.789-0.099-1.49-0.296-2.104
		C514.694,117.259,514.408,116.742,514.035,116.322z"/>
	<path fill="#FFFFFF" d="M527.052,116.373c-0.386-0.429-0.862-0.763-1.429-1.003s-1.214-0.36-1.942-0.36
		c-1.013,0-1.935,0.171-2.767,0.515c-0.833,0.343-1.609,0.861-2.33,1.557l0.412,0.733c0.068,0.12,0.161,0.222,0.277,0.303
		c0.115,0.082,0.251,0.122,0.404,0.122c0.197,0,0.397-0.07,0.599-0.212c0.202-0.142,0.442-0.301,0.721-0.477
		c0.279-0.176,0.609-0.335,0.991-0.476c0.381-0.142,0.852-0.213,1.409-0.213c0.849,0,1.49,0.261,1.924,0.783
		c0.433,0.522,0.649,1.293,0.649,2.312v1.023c-1.476,0-2.724,0.118-3.744,0.354c-1.021,0.237-1.847,0.54-2.478,0.91
		c-0.63,0.37-1.087,0.795-1.37,1.272s-0.425,0.975-0.425,1.491c0,0.594,0.097,1.108,0.29,1.543c0.192,0.435,0.452,0.794,0.777,1.078
		c0.326,0.284,0.71,0.498,1.152,0.64c0.441,0.142,0.915,0.213,1.422,0.213c0.497,0,0.95-0.043,1.357-0.129s0.791-0.212,1.152-0.38
		c0.359-0.167,0.703-0.373,1.029-0.617c0.325-0.245,0.66-0.521,1.004-0.83l0.257,1.21c0.043,0.223,0.133,0.368,0.271,0.438
		c0.137,0.068,0.317,0.103,0.54,0.103h1.017v-8.339c0-0.729-0.099-1.397-0.296-2.007S527.438,116.803,527.052,116.373z
		 M525.971,125.124c-0.257,0.274-0.521,0.519-0.791,0.733c-0.271,0.214-0.554,0.396-0.85,0.547
		c-0.296,0.149-0.611,0.266-0.945,0.347c-0.335,0.082-0.704,0.123-1.107,0.123c-0.3,0-0.579-0.037-0.836-0.11
		c-0.258-0.073-0.48-0.189-0.669-0.35c-0.188-0.159-0.339-0.364-0.45-0.614c-0.112-0.251-0.168-0.549-0.168-0.894
		c0-0.362,0.105-0.689,0.315-0.983c0.21-0.293,0.547-0.548,1.01-0.764c0.464-0.216,1.063-0.391,1.802-0.524s1.635-0.2,2.689-0.2
		V125.124z"/>
	<path fill="#FFFFFF" d="M537.809,125.985c-0.068,0-0.147,0.033-0.237,0.097c-0.091,0.064-0.2,0.136-0.329,0.213
		c-0.128,0.077-0.28,0.147-0.456,0.212s-0.384,0.097-0.624,0.097c-0.421,0-0.764-0.133-1.029-0.398
		c-0.267-0.267-0.399-0.674-0.399-1.223v-7.824h3.731v-1.66h-3.731v-4.49h-1.158c-0.146,0-0.266,0.04-0.36,0.122
		c-0.094,0.081-0.15,0.187-0.167,0.315l-0.527,4.027l-2.137,0.271v0.913c0,0.172,0.047,0.299,0.142,0.38
		c0.095,0.082,0.211,0.122,0.348,0.122h1.57v7.979c0,1.081,0.276,1.909,0.829,2.483c0.554,0.574,1.345,0.862,2.374,0.862
		c0.593,0,1.167-0.105,1.725-0.315s1.034-0.5,1.429-0.868l-0.669-1.094C538.036,126.059,537.929,125.985,537.809,125.985z"/>
	<path fill="#FFFFFF" d="M543.863,109.984c-0.15-0.15-0.324-0.268-0.521-0.354s-0.407-0.129-0.63-0.129
		c-0.224,0-0.432,0.043-0.624,0.129c-0.193,0.086-0.365,0.203-0.516,0.354s-0.268,0.326-0.354,0.527
		c-0.086,0.202-0.129,0.414-0.129,0.638c0,0.223,0.043,0.431,0.129,0.624c0.086,0.192,0.203,0.364,0.354,0.515
		c0.15,0.149,0.322,0.268,0.516,0.354c0.192,0.086,0.4,0.129,0.624,0.129c0.223,0,0.433-0.043,0.63-0.129s0.371-0.204,0.521-0.354
		c0.15-0.15,0.27-0.322,0.36-0.515c0.09-0.193,0.135-0.401,0.135-0.624c0-0.224-0.045-0.436-0.135-0.638
		C544.133,110.311,544.014,110.135,543.863,109.984z"/>
	<rect x="541.554" y="115.241" fill="#FFFFFF" width="2.29" height="13.035"/>
	<path fill="#FFFFFF" d="M557.696,116.862c-0.536-0.583-1.188-1.034-1.956-1.352s-1.628-0.476-2.58-0.476s-1.813,0.158-2.58,0.476
		s-1.422,0.769-1.963,1.352c-0.54,0.584-0.956,1.289-1.248,2.117c-0.291,0.828-0.438,1.752-0.438,2.772
		c0,1.03,0.146,1.956,0.438,2.78c0.292,0.823,0.708,1.526,1.248,2.11c0.541,0.583,1.195,1.031,1.963,1.344
		c0.768,0.313,1.628,0.47,2.58,0.47s1.813-0.156,2.58-0.47c0.768-0.313,1.42-0.761,1.956-1.344c0.536-0.584,0.948-1.287,1.235-2.11
		c0.287-0.824,0.431-1.75,0.431-2.78c0-1.021-0.144-1.944-0.431-2.772S558.232,117.446,557.696,116.862z M556.043,125.375
		c-0.635,0.861-1.596,1.293-2.883,1.293c-0.652,0-1.219-0.111-1.699-0.335c-0.48-0.223-0.881-0.542-1.203-0.958
		c-0.321-0.416-0.562-0.929-0.72-1.538c-0.159-0.609-0.238-1.3-0.238-2.072c0-0.771,0.079-1.464,0.238-2.078
		c0.158-0.612,0.398-1.13,0.72-1.551c0.322-0.42,0.723-0.741,1.203-0.965c0.48-0.223,1.047-0.334,1.699-0.334
		c1.287,0,2.248,0.433,2.883,1.299c0.635,0.867,0.952,2.077,0.952,3.629C556.995,123.31,556.678,124.513,556.043,125.375z"/>
	<path fill="#FFFFFF" d="M571.929,116.393c-0.365-0.433-0.819-0.768-1.364-1.004c-0.545-0.235-1.174-0.354-1.886-0.354
		c-0.918,0-1.726,0.192-2.425,0.579c-0.699,0.386-1.332,0.893-1.898,1.519l-0.18-1.416c-0.086-0.317-0.292-0.476-0.618-0.476h-1.364
		v13.035h2.291v-9.6c0.497-0.558,1.04-0.999,1.628-1.325c0.587-0.326,1.22-0.489,1.897-0.489c0.927,0,1.615,0.272,2.065,0.817
		s0.676,1.311,0.676,2.297v8.3h2.29v-8.3c0-0.737-0.094-1.411-0.283-2.021C572.569,117.347,572.293,116.826,571.929,116.393z"/>
	<path fill="#FFFFFF" d="M589.513,120.169c0.712-0.162,1.349-0.402,1.911-0.72c0.562-0.317,1.037-0.701,1.428-1.152
		c0.391-0.45,0.688-0.958,0.895-1.524s0.309-1.176,0.309-1.827c0-0.78-0.133-1.486-0.398-2.117
		c-0.267-0.631-0.676-1.169-1.229-1.614c-0.553-0.446-1.255-0.787-2.104-1.023c-0.85-0.236-1.857-0.354-3.024-0.354h-5.211v18.44
		h2.483v-7.695h1.892c0.343,0,0.6,0.045,0.771,0.136c0.172,0.09,0.33,0.237,0.477,0.443l4.787,6.589
		c0.214,0.352,0.549,0.527,1.004,0.527h2.213l-5.379-7.322C590.096,120.611,589.821,120.35,589.513,120.169z M587.184,118.767
		h-2.612v-6.961h2.728c1.433,0,2.512,0.278,3.236,0.836s1.088,1.386,1.088,2.483c0,0.54-0.095,1.034-0.283,1.48
		c-0.189,0.445-0.47,0.83-0.844,1.151c-0.373,0.321-0.836,0.57-1.389,0.746C588.554,118.679,587.912,118.767,587.184,118.767z"/>
	<path fill="#FFFFFF" d="M607.077,116.561c-0.48-0.494-1.051-0.871-1.712-1.133c-0.66-0.262-1.381-0.393-2.161-0.393
		c-0.944,0-1.793,0.165-2.548,0.495s-1.395,0.785-1.918,1.364s-0.924,1.264-1.203,2.053c-0.278,0.789-0.418,1.639-0.418,2.548
		c0,1.124,0.154,2.119,0.463,2.985c0.31,0.866,0.74,1.594,1.294,2.181c0.554,0.588,1.209,1.034,1.969,1.339
		c0.759,0.304,1.589,0.456,2.489,0.456c0.473,0,0.948-0.04,1.429-0.122c0.48-0.081,0.946-0.203,1.396-0.366s0.873-0.371,1.268-0.624
		s0.733-0.552,1.017-0.895l-0.644-0.836c-0.103-0.146-0.249-0.22-0.438-0.22c-0.146,0-0.319,0.067-0.521,0.2
		c-0.202,0.133-0.453,0.276-0.754,0.431c-0.3,0.154-0.658,0.298-1.074,0.432c-0.416,0.133-0.911,0.199-1.486,0.199
		c-0.617,0-1.175-0.102-1.673-0.303c-0.497-0.201-0.926-0.506-1.286-0.914c-0.36-0.407-0.644-0.915-0.85-1.524
		c-0.206-0.608-0.317-1.325-0.334-2.149h8.673c0.214,0,0.36-0.06,0.438-0.18s0.115-0.36,0.115-0.721
		c0-0.927-0.135-1.752-0.405-2.477C607.933,117.662,607.558,117.054,607.077,116.561z M599.459,120.337
		c0.154-1.133,0.549-2.019,1.185-2.657c0.635-0.639,1.505-0.959,2.612-0.959c0.522,0,0.988,0.088,1.396,0.264
		c0.406,0.177,0.752,0.425,1.035,0.746c0.283,0.322,0.497,0.704,0.644,1.146c0.146,0.442,0.219,0.929,0.219,1.461H599.459z"/>
	<path fill="#FFFFFF" d="M618.671,121.997c-0.317-0.258-0.678-0.472-1.081-0.644s-0.817-0.328-1.242-0.47
		c-0.424-0.142-0.838-0.274-1.241-0.399c-0.403-0.124-0.764-0.268-1.081-0.431s-0.572-0.356-0.766-0.579s-0.289-0.502-0.289-0.836
		c0-0.267,0.058-0.513,0.173-0.74c0.116-0.228,0.283-0.427,0.503-0.599c0.218-0.171,0.482-0.307,0.791-0.405
		s0.656-0.148,1.042-0.148c0.446,0,0.832,0.05,1.158,0.148s0.606,0.206,0.843,0.321c0.236,0.116,0.436,0.222,0.599,0.315
		c0.163,0.095,0.309,0.142,0.438,0.142c0.214,0,0.373-0.094,0.476-0.283l0.516-0.836c-0.498-0.472-1.088-0.843-1.77-1.113
		c-0.683-0.271-1.452-0.405-2.311-0.405c-0.737,0-1.394,0.103-1.969,0.309c-0.574,0.206-1.059,0.482-1.453,0.83
		c-0.396,0.348-0.695,0.751-0.901,1.21s-0.309,0.938-0.309,1.435c0,0.558,0.097,1.031,0.289,1.422
		c0.193,0.391,0.448,0.719,0.766,0.984s0.68,0.487,1.088,0.663c0.407,0.176,0.823,0.332,1.248,0.47
		c0.425,0.137,0.841,0.268,1.248,0.393c0.407,0.124,0.77,0.27,1.087,0.438c0.317,0.167,0.573,0.368,0.766,0.604
		c0.193,0.236,0.29,0.534,0.29,0.895c0,0.292-0.054,0.566-0.161,0.823c-0.107,0.258-0.272,0.484-0.495,0.682
		c-0.224,0.197-0.502,0.354-0.837,0.47c-0.334,0.116-0.725,0.174-1.171,0.174c-0.523,0-0.958-0.06-1.306-0.18
		s-0.644-0.253-0.889-0.399c-0.244-0.146-0.452-0.278-0.623-0.398c-0.172-0.12-0.335-0.181-0.489-0.181
		c-0.155,0-0.278,0.03-0.373,0.091c-0.095,0.06-0.176,0.146-0.245,0.257l-0.54,0.875c0.515,0.464,1.141,0.843,1.878,1.139
		c0.738,0.296,1.563,0.444,2.471,0.444c0.799,0,1.502-0.107,2.111-0.321c0.608-0.215,1.123-0.509,1.544-0.882
		c0.42-0.373,0.737-0.815,0.952-1.326c0.215-0.51,0.321-1.065,0.321-1.666c0-0.523-0.097-0.972-0.289-1.345
		C619.243,122.569,618.988,122.254,618.671,121.997z"/>
	<path fill="#FFFFFF" d="M632.511,116.862c-0.536-0.583-1.188-1.034-1.956-1.352s-1.628-0.476-2.58-0.476s-1.813,0.158-2.58,0.476
		s-1.422,0.769-1.963,1.352c-0.54,0.584-0.956,1.289-1.248,2.117c-0.291,0.828-0.438,1.752-0.438,2.772
		c0,1.03,0.146,1.956,0.438,2.78c0.292,0.823,0.708,1.526,1.248,2.11c0.541,0.583,1.195,1.031,1.963,1.344
		c0.768,0.313,1.628,0.47,2.58,0.47s1.813-0.156,2.58-0.47c0.768-0.313,1.42-0.761,1.956-1.344c0.536-0.584,0.948-1.287,1.235-2.11
		c0.287-0.824,0.431-1.75,0.431-2.78c0-1.021-0.144-1.944-0.431-2.772S633.047,117.446,632.511,116.862z M630.856,125.375
		c-0.635,0.861-1.596,1.293-2.882,1.293c-0.652,0-1.219-0.111-1.699-0.335c-0.48-0.223-0.881-0.542-1.203-0.958
		c-0.321-0.416-0.562-0.929-0.72-1.538c-0.159-0.609-0.238-1.3-0.238-2.072c0-0.771,0.079-1.464,0.238-2.078
		c0.158-0.612,0.398-1.13,0.72-1.551c0.322-0.42,0.723-0.741,1.203-0.965c0.48-0.223,1.047-0.334,1.699-0.334
		c1.286,0,2.247,0.433,2.882,1.299c0.635,0.867,0.953,2.077,0.953,3.629C631.81,123.31,631.491,124.513,630.856,125.375z"/>
	<path fill="#FFFFFF" d="M645.256,124.854c-0.497,0.566-1.042,1.008-1.634,1.325c-0.593,0.317-1.223,0.477-1.892,0.477
		c-0.918,0-1.604-0.271-2.059-0.811c-0.455-0.541-0.683-1.305-0.683-2.291v-8.313h-2.29v8.313c0,0.738,0.092,1.411,0.276,2.021
		s0.461,1.128,0.83,1.557c0.368,0.43,0.825,0.762,1.37,0.998c0.545,0.235,1.174,0.354,1.885,0.354c0.91,0,1.717-0.191,2.42-0.573
		c0.703-0.381,1.338-0.885,1.904-1.512l0.18,1.403c0.086,0.317,0.292,0.476,0.618,0.476h1.364v-13.035h-2.291V124.854z"/>
	<path fill="#FFFFFF" d="M657.455,115.01c-0.884,0-1.653,0.255-2.31,0.766s-1.208,1.22-1.653,2.129l-0.155-2.033
		c-0.034-0.231-0.099-0.395-0.192-0.488c-0.095-0.095-0.266-0.142-0.515-0.142h-1.313v13.035h2.29v-8.3
		c0.36-0.884,0.809-1.558,1.345-2.021s1.203-0.695,2.001-0.695c0.446,0,0.794,0.041,1.043,0.123
		c0.248,0.081,0.433,0.122,0.553,0.122c0.206,0,0.339-0.107,0.399-0.322l0.296-1.711c-0.249-0.146-0.52-0.26-0.811-0.341
		C658.142,115.051,657.815,115.01,657.455,115.01z"/>
	<path fill="#FFFFFF" d="M670.246,125.394c-0.154,0-0.309,0.067-0.463,0.2s-0.353,0.28-0.592,0.443
		c-0.24,0.163-0.541,0.312-0.901,0.444s-0.819,0.199-1.377,0.199c-0.583,0-1.108-0.109-1.576-0.328s-0.864-0.536-1.19-0.952
		s-0.579-0.931-0.759-1.544c-0.181-0.613-0.271-1.314-0.271-2.104c0-0.755,0.084-1.437,0.251-2.046s0.416-1.128,0.746-1.557
		s0.74-0.757,1.229-0.984c0.489-0.228,1.052-0.342,1.687-0.342c0.48,0,0.885,0.055,1.216,0.161c0.33,0.107,0.611,0.226,0.843,0.354
		c0.231,0.128,0.422,0.246,0.572,0.354s0.29,0.161,0.419,0.161c0.128,0,0.227-0.026,0.296-0.077
		c0.068-0.052,0.137-0.125,0.205-0.219l0.605-0.824c-0.541-0.54-1.162-0.958-1.866-1.254c-0.703-0.297-1.51-0.444-2.419-0.444
		c-0.986,0-1.861,0.167-2.625,0.502c-0.764,0.334-1.405,0.8-1.924,1.396c-0.52,0.596-0.914,1.306-1.184,2.129
		c-0.271,0.824-0.406,1.721-0.406,2.689c0,1.064,0.148,2.012,0.444,2.844c0.296,0.833,0.701,1.534,1.216,2.104
		c0.516,0.57,1.122,1.006,1.821,1.306c0.699,0.301,1.456,0.45,2.271,0.45c0.944,0,1.841-0.16,2.69-0.482
		c0.849-0.321,1.557-0.83,2.123-1.524l-0.644-0.836C670.589,125.467,670.443,125.394,670.246,125.394z"/>
	<path fill="#FFFFFF" d="M682.74,116.561c-0.48-0.494-1.051-0.871-1.711-1.133s-1.381-0.393-2.162-0.393
		c-0.943,0-1.793,0.165-2.547,0.495c-0.756,0.33-1.395,0.785-1.918,1.364s-0.925,1.264-1.203,2.053
		c-0.279,0.789-0.418,1.639-0.418,2.548c0,1.124,0.154,2.119,0.463,2.985s0.74,1.594,1.293,2.181
		c0.554,0.588,1.21,1.034,1.969,1.339c0.76,0.304,1.59,0.456,2.49,0.456c0.472,0,0.948-0.04,1.429-0.122
		c0.479-0.081,0.945-0.203,1.396-0.366c0.451-0.163,0.873-0.371,1.268-0.624s0.734-0.552,1.018-0.895l-0.645-0.836
		c-0.103-0.146-0.248-0.22-0.438-0.22c-0.146,0-0.319,0.067-0.521,0.2c-0.202,0.133-0.453,0.276-0.753,0.431
		c-0.301,0.154-0.658,0.298-1.074,0.432c-0.416,0.133-0.912,0.199-1.486,0.199c-0.618,0-1.176-0.102-1.673-0.303
		c-0.498-0.201-0.927-0.506-1.287-0.914c-0.36-0.407-0.644-0.915-0.849-1.524c-0.206-0.608-0.318-1.325-0.335-2.149h8.673
		c0.215,0,0.36-0.06,0.438-0.18s0.116-0.36,0.116-0.721c0-0.927-0.136-1.752-0.405-2.477
		C683.597,117.662,683.221,117.054,682.74,116.561z M675.123,120.337c0.154-1.133,0.549-2.019,1.184-2.657s1.506-0.959,2.612-0.959
		c0.523,0,0.989,0.088,1.396,0.264c0.407,0.177,0.753,0.425,1.036,0.746c0.283,0.322,0.497,0.704,0.643,1.146
		c0.146,0.442,0.219,0.929,0.219,1.461H675.123z"/>
</g>
</svg>
