<?xml version="1.0" encoding="utf-8"?>
<!-- Generator: Adobe Illustrator 16.0.0, SVG Export Plug-In . SVG Version: 6.00 Build 0)  -->
<!DOCTYPE svg PUBLIC "-//W3C//DTD SVG 1.1//EN" "http://www.w3.org/Graphics/SVG/1.1/DTD/svg11.dtd">
<svg version="1.1" id="Layer_1" xmlns="http://www.w3.org/2000/svg" xmlns:xlink="http://www.w3.org/1999/xlink" x="0px" y="0px"
	 width="64px" height="64.073px" viewBox="-0.5 0 64 64.073" enable-background="new -0.5 0 64 64.073" xml:space="preserve">
<g>
	<path fill="#504370" d="M63.5,63.507c0,0.313-0.253,0.565-0.564,0.565H0.064c-0.312,0-0.564-0.253-0.564-0.565V0.565
		C-0.5,0.253-0.247,0,0.064,0h62.871C63.247,0,63.5,0.253,63.5,0.565V63.507z"/>
	<g>
		<path fill="#FFFFFF" d="M22.741,36.426h0.51h4.062l4.936,0.001c1.778,0,3.889-0.062,5.223-0.238
			c1.333-0.176,2.377-0.555,3.066-1.065c-0.112-0.865-5.604-3.386-6.707-3.807c-0.493,0-0.933-0.025-1.859-0.025h-2.401h-4.062
			h-0.081l0.001-9.847h7.106c2.377,0.001,4.163,0.385,5.358,1.151c1.195,0.768,1.794,2.002,1.794,3.703
			c0,1.266-0.39,2.252-1.109,3.093c0.679,0.301,4.737,1.979,6.263,2.974c0.362-0.391,0.277-0.268,0.575-0.733
			c0.965-1.511,1.188-2.936,1.188-4.823c0.001-4.08-2.213-6.826-6.642-8.238c3.371-1.564,5.057-4.033,5.057-7.408
			c0-0.981-0.161-1.913-0.482-2.795c-0.322-0.882-0.789-1.687-1.401-2.416c-0.613-0.729-1.317-1.331-2.114-1.807
			c-0.935-0.568-1.992-0.952-3.172-1.151c-1.181-0.2-2.576-0.3-4.185-0.3l-10.92-0.001c-1.456,0-2.51,0.326-3.162,0.978
			c-0.65,0.652-0.977,1.722-0.977,3.209l-0.002,25.356c0,1.458,0.317,2.521,0.953,3.188C20.192,36.093,21.254,36.426,22.741,36.426z
			 M25.429,7.829l5.543,0c2.483,0,4.331,0.281,5.543,0.84c1.211,0.56,1.816,1.69,1.816,3.392c0,0.798-0.191,1.519-0.576,2.162
			c-0.491,0.905-1.2,1.518-2.128,1.839c-0.928,0.322-2.241,0.482-3.943,0.482h-6.256L25.429,7.829z"/>
		<path fill="#FFFFFF" d="M47.117,36.928c-0.219-0.743-0.55-1.431-0.983-2.042l-0.007-0.009c-0.439-0.628-1.003-1.193-1.678-1.687
			c-0.112-0.082-0.227-0.162-0.345-0.239c-0.925-0.609-2.096-1.227-3.481-1.838l-2.401-1.059l-7.594-3.345
			c-0.909-0.4-1.654-0.525-2.099-0.354c-0.443,0.174-0.915,0.784-1.327,1.721l-1.033,2.326l4.063-0.001l0.618-1.381l4.696,2.068
			l1.798,0.792c2.232,0.983,3.845,1.974,4.909,3.015c0.129,0.127,0.252,0.254,0.365,0.383c0.905,1.025,1.735,2.81,0.557,5.492
			c-0.43,0.978-1.066,1.774-1.893,2.37c-1.032,0.791-2.181,1.174-3.42,1.144c-0.106-0.003-0.213-0.009-0.319-0.018
			c-1.161-0.094-2.57-0.511-4.304-1.274l-7.147-3.148l1.073-2.493l-4.059-0.009l-6.105,13.944c-0.406,0.923-0.538,1.686-0.371,2.146
			c0.157,0.436,0.754,0.899,1.678,1.307l9.427,4.152c1.562,0.688,2.97,1.217,4.187,1.57c1.148,0.334,2.221,0.514,3.188,0.533
			c1.485-0.001,2.81-0.402,4.048-1.229c1.252-0.834,2.172-1.95,2.815-3.413c1.367-3.112,0.614-5.79-2.371-8.427l-2.992-2.642
			l3.989-0.078c3.125-0.062,5.101-1.273,6.217-3.813c0.319-0.727,0.506-1.476,0.554-2.227S47.332,37.664,47.117,36.928z
			 M28.295,56.926l-8.135-3.584l5.166-11.755l7.689,3.388c2.476,1.091,4.146,2.326,5.109,3.776c0.752,1.134,1.411,3.025,0.28,5.6
			c-1.095,2.491-2.883,3.346-4.189,3.624c-0.407,0.087-0.831,0.134-1.272,0.142C31.576,58.089,30.041,57.696,28.295,56.926z"/>
	</g>
</g>
</svg>
